<?xml version="1.0" encoding="utf-8"?>
<!-- Generator: Adobe Illustrator 25.4.1, SVG Export Plug-In . SVG Version: 6.00 Build 0)  -->
<svg version="1.1" id="Layer_1" xmlns="http://www.w3.org/2000/svg" xmlns:xlink="http://www.w3.org/1999/xlink" x="0px" y="0px"
	 viewBox="0 0 24 24" style="enable-background:new 0 0 24 24;" xml:space="preserve">
<style type="text/css">
	.st0{fill:#FFFFFF;}
</style>
<path class="st0" d="M17,10c-3.9,0-7,3.1-7,7s3.1,7,7,7s7-3.1,7-7S20.9,10,17,10z M17,22c-2.8,0-5-2.2-5-5s2.2-5,5-5s5,2.2,5,5
	S19.8,22,17,22z M18,16.6l1.7,1.7l-1.4,1.4L16,17.4V14h2C18,14,18,16.6,18,16.6z M9.5,22H5c-0.6,0-1-0.4-1-1V6h12v2h2V6h2V4h-5V2
	c0-1.1-0.9-2-2-2H7C5.9,0,5,0.9,5,2v2H0v2h2v15c0,1.7,1.3,3,3,3h6.3C10.6,23.4,10,22.8,9.5,22z M7,2h6v2H7V2z M6,19V9h2v10H6z"/>
</svg>
